Coordinates
version=1
nRows=12
nColumns=19
inDegrees=yes

Units are S.I. units (second, meters, Newtons, ...)
If the header above contains a line with 'inDegrees', this indicates whether rotational values are in degrees (yes) or radians (no).

endheader
time	pelvis_tilt	pelvis_list	pelvis_rotation	pelvis_tx	pelvis_ty	pelvis_tz	hip_flexion_r	hip_adduction_r	hip_rotation_r	knee_angle_r	knee_angle_r_beta	ankle_angle_r	hip_flexion_l	hip_adduction_l	hip_rotation_l	knee_angle_l	knee_angle_l_beta	ankle_angle_l
     11.55333333	    -12.87178615	     -2.67987800	     -3.95864696	      2.18645192	      1.05872810	      0.99973042	     36.24228481	      4.42363601	    -15.01748397	     15.13984636	      0.26424017	     -3.64818435	     -6.42555342	    -12.02759422	    -11.95727071	     82.17425170	      1.43421125	    -15.55394617
     11.56000000	    -12.35539874	     -3.42999039	     -4.50008321	      2.18580174	      1.05369330	      1.00033522	     35.60236226	      5.12681277	    -15.57670995	     17.44891157	      0.30454096	     -2.82054250	     -5.84672950	    -13.17988919	    -12.12360440	     86.13469420	      1.50333401	    -14.75326839
     11.56666667	    -13.17360096	     -3.63486748	     -4.76513181	      2.18435533	      1.04673478	      1.00040415	     36.70788858	      5.07613404	    -16.20431583	     20.55913315	      0.35882456	     -1.61709824	     -3.31804941	    -13.68503134	    -11.51097550	     90.31204195	      1.57624249	    -13.97284461
     11.57333333	    -13.58456158	     -3.92667217	     -5.13870252	      2.18287285	      1.04024810	      1.00046827	     37.31042025	      5.16397612	    -16.48849068	     23.74952088	      0.41450734	      0.06514849	     -1.23509554	    -14.24973496	    -11.04911488	     94.26032462	      1.64515302	    -13.10269415
     11.58000000	    -14.09233264	     -4.10815463	     -5.47798960	      2.18118661	      1.03371687	      1.00038567	     38.00170726	      5.15733360	    -16.48326647	     27.04867544	      0.47208844	      2.14418856	      1.11708125	    -14.67092415	    -10.46967900	     98.06918713	      1.71163021	    -12.20174987
     11.58666667	    -14.66141880	     -4.17312084	     -5.74609861	      2.17924572	      1.02731036	      1.00018855	     38.70210509	      5.06100155	    -16.21643047	     30.32766254	      0.52931757	      4.55082307	      3.73487385	    -14.93279495	     -9.74179363	    101.71888918	      1.77532953	    -11.31047687
     11.59333333	    -15.27109894	     -4.10131420	     -5.93657993	      2.17701051	      1.02120537	      0.99989625	     39.35493666	      4.87122499	    -15.71722979	     33.48007698	      0.58433758	      7.17931061	      6.61214870	    -15.01202045	     -8.89499982	    105.17361867	      1.83562593	    -10.47690857
     11.60000000	    -15.96952461	     -3.99799330	     -6.05139411	      2.17460601	      1.01548785	      0.99961651	     39.91738401	      4.72176264	    -15.03443367	     36.31723154	      0.63385527	      9.92140621	      9.77462463	    -15.04049365	     -7.94007013	    108.40275421	      1.89198498	     -9.62013565
     11.60666667	    -16.52973609	     -3.82594216	     -5.97933154	      2.17200708	      1.01062875	      0.99911759	     40.12625246	      4.44006098	    -14.39646616	     38.80469584	      0.67726971	     12.65527472	     13.03097481	    -14.89086386	     -6.80859468	    111.34840749	      1.94339633	     -8.82747393
     11.61333333	    -17.22331752	     -3.65927387	     -5.84028802	      2.16928216	      1.00632899	      0.99866201	     40.21010684	      4.21291312	    -13.72623883	     40.81543957	      0.71236381	     15.27737285	     16.61763196	    -14.73206101	     -5.62456553	    113.99840443	      1.98964750	     -8.17845370
     11.62000000	    -17.78399532	     -3.49851905	     -5.57215957	      2.16657110	      1.00308123	      0.99806480	     39.85279337	      3.94013628	    -13.15699221	     42.30982492	      0.73844575	     17.71439255	     20.22144047	    -14.46207764	     -4.37596528	    116.26881279	      2.02927360	     -7.59123754
     11.62666667	    -17.87991251	     -3.40833278	     -5.16651464	      2.16422563	      1.00146674	      0.99728296	     38.63471728	      3.62338820	    -12.80658979	     43.20540512	      0.75407657	     19.92120980	     23.38648959	    -14.11309485	     -3.13529539	    118.04785525	      2.06032375	     -6.99631547
